<svg xmlns="http://www.w3.org/2000/svg" xmlns:xlink="http://www.w3.org/1999/xlink" width="197" zoomAndPan="magnify" viewBox="0 0 147.75 42" height="56" preserveAspectRatio="xMidYMid meet" version="1.2"><defs/><g id="a5e6be921f"><g style="fill:#cc2c2c;fill-opacity:1;"><g transform="translate(19.486372, 27.768174)"><path style="stroke:none" d="M 7.5 -8.34375 C 8.21875 -8.34375 8.769531 -8.507812 9.15625 -8.84375 C 9.539062 -9.175781 9.734375 -9.6875 9.734375 -10.375 C 9.734375 -11.019531 9.53125 -11.519531 9.125 -11.875 C 8.71875 -12.226562 8.132812 -12.40625 7.375 -12.40625 C 7.09375 -12.40625 6.863281 -12.398438 6.6875 -12.390625 C 6.507812 -12.378906 6.328125 -12.359375 6.140625 -12.328125 L 6.140625 -8.34375 Z M 6.15625 -0.109375 C 5.96875 -0.0546875 5.671875 -0.00390625 5.265625 0.046875 C 4.867188 0.0976562 4.472656 0.125 4.078125 0.125 C 3.679688 0.125 3.332031 0.09375 3.03125 0.03125 C 2.738281 -0.0195312 2.488281 -0.125 2.28125 -0.28125 C 2.082031 -0.4375 1.929688 -0.648438 1.828125 -0.921875 C 1.722656 -1.191406 1.671875 -1.550781 1.671875 -2 L 1.671875 -14.09375 C 1.671875 -14.457031 1.769531 -14.734375 1.96875 -14.921875 C 2.164062 -15.117188 2.429688 -15.28125 2.765625 -15.40625 C 3.347656 -15.613281 4.007812 -15.765625 4.75 -15.859375 C 5.5 -15.953125 6.253906 -16 7.015625 -16 C 9.367188 -16 11.171875 -15.492188 12.421875 -14.484375 C 13.671875 -13.472656 14.296875 -12.101562 14.296875 -10.375 C 14.296875 -9.53125 14.160156 -8.769531 13.890625 -8.09375 C 13.628906 -7.414062 13.238281 -6.832031 12.71875 -6.34375 C 12.195312 -5.863281 11.535156 -5.488281 10.734375 -5.21875 C 9.941406 -4.957031 9.023438 -4.828125 7.984375 -4.828125 L 6.15625 -4.828125 Z M 6.15625 -0.109375 "/></g></g><g style="fill:#cc2c2c;fill-opacity:1;"><g transform="translate(34.274487, 27.768174)"><path style="stroke:none" d="M 6.078125 -6.1875 C 5.328125 -6.445312 4.644531 -6.707031 4.03125 -6.96875 C 3.414062 -7.238281 2.882812 -7.5625 2.4375 -7.9375 C 1.988281 -8.3125 1.640625 -8.757812 1.390625 -9.28125 C 1.148438 -9.800781 1.03125 -10.4375 1.03125 -11.1875 C 1.03125 -12.644531 1.585938 -13.8125 2.703125 -14.6875 C 3.828125 -15.5625 5.398438 -16 7.421875 -16 C 8.148438 -16 8.832031 -15.945312 9.46875 -15.84375 C 10.101562 -15.738281 10.644531 -15.578125 11.09375 -15.359375 C 11.550781 -15.148438 11.90625 -14.878906 12.15625 -14.546875 C 12.414062 -14.210938 12.546875 -13.820312 12.546875 -13.375 C 12.546875 -12.925781 12.441406 -12.539062 12.234375 -12.21875 C 12.035156 -11.90625 11.789062 -11.640625 11.5 -11.421875 C 11.125 -11.660156 10.617188 -11.867188 9.984375 -12.046875 C 9.347656 -12.234375 8.65625 -12.328125 7.90625 -12.328125 C 7.132812 -12.328125 6.566406 -12.21875 6.203125 -12 C 5.847656 -11.789062 5.671875 -11.519531 5.671875 -11.1875 C 5.671875 -10.9375 5.78125 -10.726562 6 -10.5625 C 6.226562 -10.394531 6.566406 -10.242188 7.015625 -10.109375 L 8.375 -9.671875 C 9.976562 -9.160156 11.210938 -8.503906 12.078125 -7.703125 C 12.941406 -6.910156 13.375 -5.832031 13.375 -4.46875 C 13.375 -3.007812 12.800781 -1.832031 11.65625 -0.9375 C 10.507812 -0.0390625 8.820312 0.40625 6.59375 0.40625 C 5.8125 0.40625 5.082031 0.34375 4.40625 0.21875 C 3.726562 0.09375 3.132812 -0.09375 2.625 -0.34375 C 2.125 -0.59375 1.734375 -0.898438 1.453125 -1.265625 C 1.171875 -1.640625 1.03125 -2.066406 1.03125 -2.546875 C 1.03125 -3.035156 1.175781 -3.457031 1.46875 -3.8125 C 1.757812 -4.164062 2.070312 -4.4375 2.40625 -4.625 C 2.882812 -4.25 3.472656 -3.921875 4.171875 -3.640625 C 4.867188 -3.367188 5.625 -3.234375 6.4375 -3.234375 C 7.28125 -3.234375 7.875 -3.359375 8.21875 -3.609375 C 8.5625 -3.867188 8.734375 -4.171875 8.734375 -4.515625 C 8.734375 -4.859375 8.59375 -5.117188 8.3125 -5.296875 C 8.039062 -5.484375 7.65625 -5.660156 7.15625 -5.828125 Z M 6.078125 -6.1875 "/></g></g><g style="fill:#cc2c2c;fill-opacity:1;"><g transform="translate(48.420764, 27.768174)"><path style="stroke:none" d="M 5.703125 -4.28125 C 5.703125 -3.84375 5.84375 -3.53125 6.125 -3.34375 C 6.40625 -3.15625 6.800781 -3.0625 7.3125 -3.0625 C 7.570312 -3.0625 7.835938 -3.082031 8.109375 -3.125 C 8.378906 -3.164062 8.617188 -3.21875 8.828125 -3.28125 C 8.984375 -3.09375 9.113281 -2.882812 9.21875 -2.65625 C 9.332031 -2.425781 9.390625 -2.148438 9.390625 -1.828125 C 9.390625 -1.171875 9.144531 -0.632812 8.65625 -0.21875 C 8.175781 0.1875 7.316406 0.390625 6.078125 0.390625 C 4.578125 0.390625 3.421875 0.046875 2.609375 -0.640625 C 1.796875 -1.328125 1.390625 -2.441406 1.390625 -3.984375 L 1.390625 -14.96875 C 1.578125 -15.019531 1.84375 -15.070312 2.1875 -15.125 C 2.539062 -15.1875 2.914062 -15.21875 3.3125 -15.21875 C 4.0625 -15.21875 4.644531 -15.082031 5.0625 -14.8125 C 5.488281 -14.550781 5.703125 -13.992188 5.703125 -13.140625 L 5.703125 -11.5 L 9.0625 -11.5 C 9.164062 -11.3125 9.265625 -11.078125 9.359375 -10.796875 C 9.453125 -10.515625 9.5 -10.203125 9.5 -9.859375 C 9.5 -9.253906 9.363281 -8.816406 9.09375 -8.546875 C 8.832031 -8.285156 8.476562 -8.15625 8.03125 -8.15625 L 5.703125 -8.15625 Z M 5.703125 -4.28125 "/></g></g><g style="fill:#cc2c2c;fill-opacity:1;"><g transform="translate(58.690293, 27.768174)"><path style="stroke:none" d="M 1.328125 -12.296875 C 1.503906 -12.347656 1.773438 -12.398438 2.140625 -12.453125 C 2.515625 -12.503906 2.894531 -12.53125 3.28125 -12.53125 C 3.65625 -12.53125 3.992188 -12.503906 4.296875 -12.453125 C 4.597656 -12.398438 4.847656 -12.296875 5.046875 -12.140625 C 5.253906 -11.984375 5.414062 -11.769531 5.53125 -11.5 C 5.644531 -11.238281 5.703125 -10.894531 5.703125 -10.46875 L 5.703125 -4.953125 C 5.703125 -4.253906 5.867188 -3.753906 6.203125 -3.453125 C 6.546875 -3.148438 7.046875 -3 7.703125 -3 C 8.097656 -3 8.414062 -3.03125 8.65625 -3.09375 C 8.90625 -3.164062 9.097656 -3.238281 9.234375 -3.3125 L 9.234375 -12.296875 C 9.410156 -12.347656 9.679688 -12.398438 10.046875 -12.453125 C 10.421875 -12.503906 10.800781 -12.53125 11.1875 -12.53125 C 11.5625 -12.53125 11.898438 -12.503906 12.203125 -12.453125 C 12.503906 -12.398438 12.753906 -12.296875 12.953125 -12.140625 C 13.160156 -11.984375 13.320312 -11.769531 13.4375 -11.5 C 13.550781 -11.238281 13.609375 -10.894531 13.609375 -10.46875 L 13.609375 -2.671875 C 13.609375 -1.816406 13.25 -1.175781 12.53125 -0.75 C 11.925781 -0.375 11.207031 -0.0859375 10.375 0.109375 C 9.550781 0.304688 8.648438 0.40625 7.671875 0.40625 C 6.753906 0.40625 5.90625 0.300781 5.125 0.09375 C 4.34375 -0.101562 3.671875 -0.414062 3.109375 -0.84375 C 2.546875 -1.269531 2.109375 -1.820312 1.796875 -2.5 C 1.484375 -3.175781 1.328125 -3.992188 1.328125 -4.953125 Z M 1.328125 -12.296875 "/></g></g><g style="fill:#cc2c2c;fill-opacity:1;"><g transform="translate(73.632461, 27.768174)"><path style="stroke:none" d="M 0.796875 -6.234375 C 0.796875 -7.367188 0.96875 -8.347656 1.3125 -9.171875 C 1.65625 -10.003906 2.128906 -10.691406 2.734375 -11.234375 C 3.335938 -11.785156 4.046875 -12.191406 4.859375 -12.453125 C 5.671875 -12.722656 6.550781 -12.859375 7.5 -12.859375 C 7.84375 -12.859375 8.175781 -12.828125 8.5 -12.765625 C 8.820312 -12.710938 9.085938 -12.640625 9.296875 -12.546875 L 9.296875 -16.71875 C 9.460938 -16.769531 9.734375 -16.820312 10.109375 -16.875 C 10.484375 -16.9375 10.867188 -16.96875 11.265625 -16.96875 C 11.640625 -16.96875 11.976562 -16.941406 12.28125 -16.890625 C 12.582031 -16.835938 12.832031 -16.734375 13.03125 -16.578125 C 13.238281 -16.429688 13.394531 -16.222656 13.5 -15.953125 C 13.601562 -15.691406 13.65625 -15.347656 13.65625 -14.921875 L 13.65625 -2.75 C 13.65625 -1.945312 13.28125 -1.304688 12.53125 -0.828125 C 12.03125 -0.492188 11.382812 -0.207031 10.59375 0.03125 C 9.8125 0.28125 8.90625 0.40625 7.875 0.40625 C 6.769531 0.40625 5.773438 0.253906 4.890625 -0.046875 C 4.003906 -0.359375 3.257812 -0.804688 2.65625 -1.390625 C 2.050781 -1.972656 1.585938 -2.671875 1.265625 -3.484375 C 0.953125 -4.296875 0.796875 -5.210938 0.796875 -6.234375 Z M 8.09375 -9.453125 C 7.164062 -9.453125 6.453125 -9.1875 5.953125 -8.65625 C 5.460938 -8.125 5.21875 -7.316406 5.21875 -6.234375 C 5.21875 -5.171875 5.445312 -4.367188 5.90625 -3.828125 C 6.363281 -3.296875 7.03125 -3.03125 7.90625 -3.03125 C 8.21875 -3.03125 8.492188 -3.078125 8.734375 -3.171875 C 8.984375 -3.265625 9.175781 -3.367188 9.3125 -3.484375 L 9.3125 -9.140625 C 8.976562 -9.347656 8.570312 -9.453125 8.09375 -9.453125 Z M 8.09375 -9.453125 "/></g></g><g style="fill:#cc2c2c;fill-opacity:1;"><g transform="translate(88.677322, 27.768174)"><path style="stroke:none" d="M 7.9375 0.40625 C 6.925781 0.40625 5.988281 0.265625 5.125 -0.015625 C 4.257812 -0.296875 3.503906 -0.71875 2.859375 -1.28125 C 2.222656 -1.84375 1.71875 -2.550781 1.34375 -3.40625 C 0.976562 -4.269531 0.796875 -5.273438 0.796875 -6.421875 C 0.796875 -7.546875 0.976562 -8.515625 1.34375 -9.328125 C 1.71875 -10.140625 2.203125 -10.804688 2.796875 -11.328125 C 3.398438 -11.847656 4.082031 -12.234375 4.84375 -12.484375 C 5.613281 -12.734375 6.40625 -12.859375 7.21875 -12.859375 C 8.125 -12.859375 8.945312 -12.722656 9.6875 -12.453125 C 10.4375 -12.179688 11.078125 -11.804688 11.609375 -11.328125 C 12.148438 -10.847656 12.570312 -10.269531 12.875 -9.59375 C 13.175781 -8.925781 13.328125 -8.203125 13.328125 -7.421875 C 13.328125 -6.835938 13.160156 -6.390625 12.828125 -6.078125 C 12.503906 -5.773438 12.050781 -5.582031 11.46875 -5.5 L 5.140625 -4.546875 C 5.328125 -3.984375 5.707031 -3.554688 6.28125 -3.265625 C 6.863281 -2.984375 7.535156 -2.84375 8.296875 -2.84375 C 8.992188 -2.84375 9.65625 -2.929688 10.28125 -3.109375 C 10.90625 -3.296875 11.414062 -3.507812 11.8125 -3.75 C 12.082031 -3.570312 12.3125 -3.328125 12.5 -3.015625 C 12.6875 -2.710938 12.78125 -2.390625 12.78125 -2.046875 C 12.78125 -1.285156 12.421875 -0.710938 11.703125 -0.328125 C 11.160156 -0.0351562 10.546875 0.15625 9.859375 0.25 C 9.171875 0.351562 8.53125 0.40625 7.9375 0.40625 Z M 7.21875 -9.671875 C 6.800781 -9.671875 6.441406 -9.601562 6.140625 -9.46875 C 5.847656 -9.332031 5.609375 -9.15625 5.421875 -8.9375 C 5.234375 -8.726562 5.09375 -8.488281 5 -8.21875 C 4.90625 -7.957031 4.847656 -7.691406 4.828125 -7.421875 L 9.21875 -8.140625 C 9.164062 -8.484375 8.972656 -8.820312 8.640625 -9.15625 C 8.316406 -9.5 7.84375 -9.671875 7.21875 -9.671875 Z M 7.21875 -9.671875 "/></g></g><g style="fill:#cc2c2c;fill-opacity:1;"><g transform="translate(102.772259, 27.768174)"><path style="stroke:none" d="M 9.234375 -7.90625 C 9.234375 -8.4375 9.082031 -8.828125 8.78125 -9.078125 C 8.488281 -9.328125 8.085938 -9.453125 7.578125 -9.453125 C 7.234375 -9.453125 6.894531 -9.40625 6.5625 -9.3125 C 6.226562 -9.226562 5.941406 -9.101562 5.703125 -8.9375 L 5.703125 -0.03125 C 5.523438 0.0195312 5.253906 0.0703125 4.890625 0.125 C 4.523438 0.175781 4.144531 0.203125 3.75 0.203125 C 3.375 0.203125 3.035156 0.175781 2.734375 0.125 C 2.429688 0.0703125 2.175781 -0.0234375 1.96875 -0.171875 C 1.769531 -0.328125 1.613281 -0.535156 1.5 -0.796875 C 1.382812 -1.066406 1.328125 -1.414062 1.328125 -1.84375 L 1.328125 -9.546875 C 1.328125 -10.015625 1.425781 -10.390625 1.625 -10.671875 C 1.820312 -10.960938 2.09375 -11.226562 2.4375 -11.46875 C 3.019531 -11.882812 3.75 -12.21875 4.625 -12.46875 C 5.507812 -12.726562 6.492188 -12.859375 7.578125 -12.859375 C 9.503906 -12.859375 10.988281 -12.429688 12.03125 -11.578125 C 13.082031 -10.734375 13.609375 -9.5625 13.609375 -8.0625 L 13.609375 -0.03125 C 13.429688 0.0195312 13.160156 0.0703125 12.796875 0.125 C 12.429688 0.175781 12.050781 0.203125 11.65625 0.203125 C 11.28125 0.203125 10.941406 0.175781 10.640625 0.125 C 10.335938 0.0703125 10.082031 -0.0234375 9.875 -0.171875 C 9.675781 -0.328125 9.519531 -0.535156 9.40625 -0.796875 C 9.289062 -1.066406 9.234375 -1.414062 9.234375 -1.84375 Z M 9.234375 -7.90625 "/></g></g><g style="fill:#cc2c2c;fill-opacity:1;"><g transform="translate(117.740104, 27.768174)"><path style="stroke:none" d="M 5.703125 -4.28125 C 5.703125 -3.84375 5.84375 -3.53125 6.125 -3.34375 C 6.40625 -3.15625 6.800781 -3.0625 7.3125 -3.0625 C 7.570312 -3.0625 7.835938 -3.082031 8.109375 -3.125 C 8.378906 -3.164062 8.617188 -3.21875 8.828125 -3.28125 C 8.984375 -3.09375 9.113281 -2.882812 9.21875 -2.65625 C 9.332031 -2.425781 9.390625 -2.148438 9.390625 -1.828125 C 9.390625 -1.171875 9.144531 -0.632812 8.65625 -0.21875 C 8.175781 0.1875 7.316406 0.390625 6.078125 0.390625 C 4.578125 0.390625 3.421875 0.046875 2.609375 -0.640625 C 1.796875 -1.328125 1.390625 -2.441406 1.390625 -3.984375 L 1.390625 -14.96875 C 1.578125 -15.019531 1.84375 -15.070312 2.1875 -15.125 C 2.539062 -15.1875 2.914062 -15.21875 3.3125 -15.21875 C 4.0625 -15.21875 4.644531 -15.082031 5.0625 -14.8125 C 5.488281 -14.550781 5.703125 -13.992188 5.703125 -13.140625 L 5.703125 -11.5 L 9.0625 -11.5 C 9.164062 -11.3125 9.265625 -11.078125 9.359375 -10.796875 C 9.453125 -10.515625 9.5 -10.203125 9.5 -9.859375 C 9.5 -9.253906 9.363281 -8.816406 9.09375 -8.546875 C 8.832031 -8.285156 8.476562 -8.15625 8.03125 -8.15625 L 5.703125 -8.15625 Z M 5.703125 -4.28125 "/></g></g></g></svg>